<svg width="25" height="25" viewBox="0 0 25 25" fill="none" xmlns="http://www.w3.org/2000/svg">
<path d="M22.7028 21.0464L18.7304 17.074C20.1947 15.1882 20.8854 12.8152 20.6617 10.4382C20.438 8.06111 19.3167 5.85865 17.5263 4.27919C15.7358 2.69973 13.4107 1.86202 11.0243 1.93659C8.63786 2.01116 6.36958 2.99242 4.68121 4.68058C2.99285 6.36875 2.01133 8.63691 1.93647 11.0233C1.86162 13.4097 2.69906 15.7349 4.27831 17.5256C5.85756 19.3162 8.05988 20.4377 10.4369 20.6617C12.814 20.8857 15.187 20.1953 17.073 18.7312L21.0455 22.7037C21.154 22.8139 21.2833 22.9016 21.4258 22.9617C21.5684 23.0218 21.7214 23.053 21.8761 23.0537C22.0308 23.0543 22.1841 23.0243 22.3271 22.9654C22.4702 22.9065 22.6001 22.8198 22.7095 22.7104C22.8189 22.6011 22.9055 22.4711 22.9645 22.3281C23.0234 22.185 23.0534 22.0317 23.0527 21.877C23.0521 21.7223 23.0209 21.5693 22.9608 21.4267C22.9007 21.2842 22.813 21.1549 22.7027 21.0464H22.7028ZM4.29659 11.3281C4.29659 9.93743 4.70896 8.57801 5.48156 7.42173C6.25417 6.26544 7.3523 5.36423 8.63709 4.83205C9.92188 4.29987 11.3356 4.16063 12.6996 4.43193C14.0635 4.70324 15.3163 5.3729 16.2997 6.35624C17.283 7.33957 17.9527 8.59242 18.224 9.95635C18.4953 11.3203 18.356 12.734 17.8239 14.0188C17.2917 15.3036 16.3905 16.4017 15.2342 17.1744C14.0779 17.947 12.7185 18.3593 11.3278 18.3593C9.46367 18.3572 7.67646 17.6158 6.3583 16.2976C5.04014 14.9795 4.29868 13.1922 4.29659 11.3281Z" fill="#838E98"/>
</svg>
