<svg width="40" height="50" viewBox="0 0 40 50" fill="none" xmlns="http://www.w3.org/2000/svg">
<path fill-rule="evenodd" clip-rule="evenodd" d="M40 0H0V49.2541L20 41.1589L40 49.254V0ZM40 49.9787H0V50H40V49.9787Z" fill="#F8A427"/>
<path d="M27 10H14C12.794 10 11 10.799 11 13V27C11 29.201 12.794 30 14 30H29V28H14.012C13.55 27.988 13 27.806 13 27C13 26.899 13.009 26.809 13.024 26.727C13.136 26.151 13.608 26.01 14.012 26H29V12C29 11.4696 28.7893 10.9609 28.4142 10.5858C28.0391 10.2107 27.5304 10 27 10ZM27 19L25 18L23 19V12H27V19Z" fill="white"/>
</svg>
