<svg width="150" height="150" viewBox="0 0 150 150" fill="none" xmlns="http://www.w3.org/2000/svg">
<circle cx="75" cy="75" r="75" fill="#42B983"/>
<g clip-path="url(#clip0)">
<path d="M116.625 91.2113C112.556 91.2113 108.324 90.8654 103.93 90.1737C99.5354 89.482 95.1816 88.424 90.8684 86.9999C86.5553 85.5757 82.9338 83.5209 80.0042 80.8353C77.0745 78.1498 75.4469 75.098 75.1213 71.6801H74.8772C74.5517 75.098 72.9241 78.1498 69.9944 80.8353C67.0647 83.5209 63.4433 85.5757 59.1301 86.9999C54.817 88.424 50.4631 89.482 46.0686 90.1737C41.6741 90.8654 37.4423 91.2113 33.3733 91.2113C31.2574 91.2113 29.3857 91.1503 27.7581 91.0282C26.1305 90.9061 24.3197 90.6213 22.3259 90.1737C20.3321 89.7261 18.6638 89.0954 17.321 88.2816C15.9783 87.4678 14.8389 86.3081 13.9031 84.8026C12.9672 83.2971 12.4993 81.5271 12.4993 79.4926C12.4993 71.6801 16.4055 67.7738 24.218 67.7738C25.8456 67.7738 27.0053 68.4248 27.697 69.7269C28.3888 71.029 28.3888 72.3311 27.697 73.6332C27.0053 74.9353 25.8456 75.5863 24.218 75.5863C23.8925 75.6677 23.5263 75.7694 23.1194 75.8915C22.7125 76.0136 22.1428 76.4205 21.4104 77.1122C20.678 77.8039 20.3118 78.5974 20.3118 79.4926C20.3118 82.0967 24.218 83.3988 32.0305 83.3988C34.9602 83.3988 37.6458 82.7071 40.0872 81.3236C42.5286 79.9401 43.7493 78.0277 43.7493 75.5863C43.7493 70.8663 45.2345 67.0821 48.2048 64.2338C51.1752 61.3855 54.8984 59.9613 59.3743 59.9613C62.8736 59.9613 66.0068 60.7141 68.7737 62.2196C71.5406 63.7251 73.4124 65.5765 74.3889 67.7738H75.6096C76.5862 65.5765 78.4579 63.7251 81.2249 62.2196C83.9918 60.7141 87.1249 59.9613 90.6243 59.9613C95.1002 59.9613 98.8233 61.3855 101.794 64.2338C104.764 67.0821 106.249 70.8663 106.249 75.5863C106.249 78.0277 107.47 79.9401 109.911 81.3236C112.353 82.7071 115.038 83.3988 117.968 83.3988C125.781 83.3988 129.687 82.0967 129.687 79.4926C129.687 78.5974 129.361 77.8243 128.71 77.1732C128.059 76.5222 127.408 76.0746 126.757 75.8304L125.781 75.5863C124.153 75.5863 122.993 74.9353 122.302 73.6332C121.61 72.3311 121.61 71.029 122.302 69.7269C122.993 68.4248 124.153 67.7738 125.781 67.7738C133.593 67.7738 137.499 71.6801 137.499 79.4926C137.499 81.5271 137.031 83.2971 136.095 84.8026C135.16 86.3081 134.02 87.4678 132.677 88.2816C131.335 89.0954 129.666 89.7261 127.673 90.1737C125.679 90.6213 123.868 90.9061 122.24 91.0282C120.613 91.1503 118.741 91.2113 116.625 91.2113Z" fill="white"/>
</g>
<defs>
<clipPath id="clip0">
<rect width="125" height="74.9512" fill="white" transform="translate(12.4993 37.5)"/>
</clipPath>
</defs>
</svg>
