<svg width="290" height="174" viewBox="0 0 290 174" fill="none" xmlns="http://www.w3.org/2000/svg">
<path d="M241.572 124.609C232.132 124.609 222.314 123.807 212.119 122.202C201.924 120.597 191.823 118.143 181.816 114.839C171.81 111.535 163.408 106.768 156.611 100.537C149.814 94.3066 146.038 87.2266 145.283 79.2969H144.717C143.962 87.2266 140.186 94.3066 133.389 100.537C126.592 106.768 118.19 111.535 108.184 114.839C98.1771 118.143 88.0762 120.597 77.8809 122.202C67.6855 123.807 57.8678 124.609 48.4277 124.609C43.5189 124.609 39.1764 124.468 35.4004 124.185C31.6243 123.901 27.4235 123.241 22.7979 122.202C18.1722 121.164 14.3018 119.701 11.1865 117.812C8.07129 115.924 5.42806 113.234 3.25684 109.741C1.08561 106.248 0 102.142 0 97.4219C0 79.2969 9.0625 70.2344 27.1875 70.2344C30.9635 70.2344 33.654 71.7448 35.2588 74.7656C36.8636 77.7865 36.8636 80.8073 35.2588 83.8281C33.654 86.849 30.9635 88.3594 27.1875 88.3594C26.4323 88.5482 25.5827 88.7842 24.6387 89.0674C23.6947 89.3506 22.373 90.2946 20.6738 91.8994C18.9746 93.5042 18.125 95.3451 18.125 97.4219C18.125 103.464 27.1875 106.484 45.3125 106.484C52.1094 106.484 58.3398 104.88 64.0039 101.67C69.668 98.4603 72.5 94.0234 72.5 88.3594C72.5 77.4089 75.9456 68.6296 82.8369 62.0215C89.7282 55.4134 98.3659 52.1094 108.75 52.1094C116.868 52.1094 124.137 53.8558 130.557 57.3486C136.976 60.8415 141.318 65.1367 143.584 70.2344H146.416C148.682 65.1367 153.024 60.8415 159.443 57.3486C165.863 53.8558 173.132 52.1094 181.25 52.1094C191.634 52.1094 200.272 55.4134 207.163 62.0215C214.054 68.6296 217.5 77.4089 217.5 88.3594C217.5 94.0234 220.332 98.4603 225.996 101.67C231.66 104.88 237.891 106.484 244.688 106.484C262.812 106.484 271.875 103.464 271.875 97.4219C271.875 95.3451 271.12 93.5514 269.609 92.041C268.099 90.5306 266.589 89.4922 265.078 88.9258L262.812 88.3594C259.036 88.3594 256.346 86.849 254.741 83.8281C253.136 80.8073 253.136 77.7865 254.741 74.7656C256.346 71.7448 259.036 70.2344 262.812 70.2344C280.938 70.2344 290 79.2969 290 97.4219C290 102.142 288.914 106.248 286.743 109.741C284.572 113.234 281.929 115.924 278.813 117.812C275.698 119.701 271.828 121.164 267.202 122.202C262.576 123.241 258.376 123.901 254.6 124.185C250.824 124.468 246.481 124.609 241.572 124.609Z" fill="black"/>
</svg>
