<svg width="42" height="42" viewBox="0 0 42 42" fill="none" xmlns="http://www.w3.org/2000/svg">
<path d="M21 10.5C19.7021 10.5 18.4333 10.8849 17.3541 11.606C16.2749 12.3271 15.4337 13.352 14.937 14.5511C14.4403 15.7503 14.3104 17.0698 14.5636 18.3428C14.8168 19.6158 15.4418 20.7851 16.3596 21.7029C17.2774 22.6207 18.4467 23.2457 19.7197 23.4989C20.9927 23.7521 22.3122 23.6222 23.5114 23.1255C24.7105 22.6288 25.7354 21.7876 26.4565 20.7084C27.1776 19.6292 27.5625 18.3604 27.5625 17.0625C27.5625 15.322 26.8711 13.6528 25.6404 12.4221C24.4097 11.1914 22.7405 10.5 21 10.5Z" fill="black"/>
<path d="M21 2.625C17.3658 2.625 13.8132 3.70268 10.7914 5.72175C7.76965 7.74082 5.41448 10.6106 4.02372 13.9682C2.63296 17.3258 2.26908 21.0204 2.97808 24.5848C3.68708 28.1492 5.43713 31.4233 8.00692 33.9931C10.5767 36.5629 13.8508 38.3129 17.4152 39.0219C20.9796 39.7309 24.6742 39.367 28.0318 37.9763C31.3894 36.5855 34.2592 34.2304 36.2783 31.2086C38.2973 28.1868 39.375 24.6342 39.375 21C39.3694 16.1284 37.4317 11.4578 33.987 8.01305C30.5422 4.56827 25.8717 2.63056 21 2.625V2.625ZM31.4895 32.7154C31.4634 30.9938 30.7619 29.3514 29.5364 28.1421C28.3108 26.9327 26.6593 26.2532 24.9375 26.25H17.0625C15.3407 26.2532 13.6892 26.9327 12.4636 28.1421C11.2381 29.3514 10.5367 30.9938 10.5105 32.7154C8.13037 30.5901 6.4519 27.792 5.69735 24.6916C4.9428 21.5912 5.14776 18.3348 6.2851 15.3534C7.42243 12.3721 9.43848 9.80656 12.0663 7.99649C14.6941 6.18642 17.8098 5.21722 21.0007 5.21722C24.1916 5.21722 27.3072 6.18642 29.935 7.99649C32.5628 9.80656 34.5789 12.3721 35.7162 15.3534C36.8536 18.3348 37.0585 21.5912 36.304 24.6916C35.5494 27.792 33.871 30.5901 31.4908 32.7154H31.4895Z" fill="#0D0C22"/>
</svg>
